<svg width="27" height="28" viewBox="0 0 27 28" fill="none" xmlns="http://www.w3.org/2000/svg">
<path d="M26.9169 1.45469C27.2131 0.815521 26.676 -0.0301452 25.963 0.0055006C24.4377 -0.000645225 22.911 0.00918799 21.3844 0.000583828C20.9136 -0.0153953 20.4441 0.298042 20.3335 0.767583C20.0655 1.86646 19.8443 2.97639 19.5923 4.08018C13.5165 4.08387 7.44199 4.07895 1.36622 4.08141C0.906513 4.02856 0.461555 4.3506 0.33741 4.79064C0.250139 5.11268 0.317741 5.44579 0.374285 5.7666C1.02451 9.32626 1.65877 12.8872 2.309 16.4468C2.37414 16.9913 2.92726 17.3945 3.46318 17.3576C7.84638 17.3601 12.2308 17.3564 16.614 17.3589C16.528 17.8837 16.3977 18.4 16.2772 18.9174C16.2158 18.9678 16.0953 19.0699 16.0351 19.1202C11.9223 19.1584 7.80828 19.1178 3.69426 19.1411C3.18907 19.1227 2.7097 19.5001 2.64087 20.0065C2.50074 20.6334 3.05387 21.286 3.69672 21.2369C8.12786 21.243 12.559 21.2381 16.9889 21.2393C17.3282 21.2651 17.6342 21.1176 17.8948 20.9161C17.9796 20.7317 18.0743 20.5498 18.1234 20.3519C19.4374 14.4568 20.7538 8.56172 22.0629 2.66664C22.1022 2.38025 22.3161 2.09754 22.6296 2.11352C23.7395 2.08894 24.8519 2.12581 25.9618 2.1C26.3687 2.09016 26.7768 1.84925 26.9169 1.45469ZM10.6194 6.71674C10.6747 9.18368 10.6243 11.6543 10.6452 14.1237C10.6268 14.356 10.687 14.6178 10.5628 14.8292C10.2752 15.3357 9.31892 15.2398 9.25255 14.6141C9.24149 11.953 9.24149 9.29062 9.25378 6.62824C9.58934 6.18329 10.4006 6.14641 10.6194 6.71674ZM5.77401 6.86301C6.19193 9.36314 6.59264 11.8669 6.99334 14.3708C7.09782 15.0591 6.18578 15.2877 5.72116 14.93C5.55153 14.431 5.50483 13.9037 5.4151 13.3874C5.07953 11.3347 4.75134 9.28078 4.41087 7.22931C4.38137 7.03878 4.34572 6.8286 4.46618 6.65897C4.75381 6.15993 5.71747 6.23122 5.77401 6.86301ZM15.482 6.85687C15.5029 7.18751 15.4094 7.51324 15.364 7.8402C14.9989 10.0982 14.6424 12.3586 14.2626 14.6154C14.1385 15.4057 12.7237 15.1648 12.8884 14.3708C13.2781 11.9087 13.6874 9.44795 14.0782 6.98593C14.1127 6.81016 14.1815 6.64545 14.2442 6.47951C14.4949 6.37135 14.7592 6.31849 15.0309 6.32341C15.198 6.48074 15.477 6.59137 15.482 6.85687Z" fill="#1A1A1A"/>
<path d="M16.0548 22.2104C15.1464 22.0162 14.152 22.278 13.4747 22.9172C12.6623 23.6522 12.3169 24.8715 12.6512 25.9188C13.0077 27.1381 14.2196 28.0415 15.4955 27.9985C17.0455 28.0231 18.4197 26.6071 18.3767 25.0633C18.3988 23.7223 17.3675 22.4648 16.0548 22.2104ZM15.7278 24.0984C16.2047 24.2053 16.5218 24.7105 16.4641 25.1874C16.4198 25.7614 15.8089 26.1978 15.2497 26.0749C14.6461 25.9704 14.2528 25.2427 14.5146 24.6835C14.6756 24.2041 15.2583 23.957 15.7278 24.0984Z" fill="#1A1A1A"/>
<path d="M7.95701 24.6749C7.8046 23.3547 6.63935 22.2473 5.31431 22.1637C4.37031 22.053 3.43122 22.4882 2.80926 23.1876C2.34341 23.7862 2.06808 24.5495 2.14429 25.3128C2.21804 26.1966 2.70602 27.0484 3.46196 27.5204C4.30639 28.0723 5.44828 28.1645 6.34926 27.6937C7.45797 27.1664 8.14753 25.8917 7.95701 24.6749ZM5.49376 24.1561C6.11572 24.413 6.27797 25.3398 5.78016 25.7934C5.2971 26.3195 4.30885 26.1068 4.10235 25.4173C3.75818 24.6159 4.72554 23.7333 5.49376 24.1561Z" fill="#1A1A1A"/>
</svg>
