<svg width="30" height="29" viewBox="0 0 30 29" fill="none" xmlns="http://www.w3.org/2000/svg">
<path d="M3.481 0H21.9192C23.6899 0.175669 25.2826 1.7075 25.2733 3.52977C25.2826 7.12043 25.2803 10.7088 25.2756 14.2994C25.3318 16.2177 23.5775 17.9135 21.6779 17.8784C17.7992 17.8737 13.9204 17.8877 10.0393 17.8713C8.16315 19.436 6.33151 21.0568 4.46006 22.6261C4.12043 23.0219 3.37091 22.776 3.40839 22.2467C3.48568 20.7992 3.63324 19.354 3.71054 17.9065C1.84611 17.9276 0.0753707 16.3864 0.0168146 14.4868C-0.0112924 10.8352 0.00276136 7.18133 0.0097881 3.52977C0.0121303 1.663 1.6517 0.107743 3.481 0ZM1.1856 3.72183C1.18325 7.21646 1.17623 10.7111 1.19028 14.2057C1.18091 15.501 2.32861 16.719 3.65198 16.6487C4.08998 16.6932 4.75284 16.5644 4.93319 17.1054C4.89337 18.3468 4.8395 19.5929 4.6896 20.8249C6.16521 19.6187 7.58462 18.3398 9.04618 17.1148C9.30851 16.9063 9.58489 16.63 9.95263 16.6674C13.8618 16.651 17.7757 16.6862 21.6873 16.651C22.9427 16.6908 24.0904 15.5244 24.0412 14.269C24.0647 10.7626 24.0506 7.25628 24.0483 3.74994C24.1537 2.44296 22.9943 1.24373 21.6967 1.23436C15.6771 1.22031 9.65516 1.225 3.63324 1.23202C2.30987 1.21563 1.15046 2.4008 1.1856 3.72183Z" fill="black"/>
<path d="M5.03625 5.83454C5.26345 5.53473 5.66631 5.64482 5.98954 5.61203C10.2009 5.61905 14.4123 5.61437 18.6236 5.61437C19.2677 5.64013 19.9774 5.4832 20.5349 5.89544C20.6192 6.35686 20.3897 6.92134 19.8322 6.83C15.0564 6.83234 10.2805 6.84171 5.50704 6.82531C5.01049 6.92369 4.54672 6.13903 5.03625 5.83454Z" fill="black"/>
<path d="M27.1564 7.75752C28.7515 8.10652 30.0397 9.59384 29.9929 11.2568C29.9929 14.2901 30.014 17.3256 29.9835 20.3588C29.9203 22.2631 28.1378 23.6942 26.2945 23.6918C26.4116 25.0902 26.4561 26.4955 26.6083 27.8915C26.7723 28.3716 26.1446 28.8612 25.7511 28.4934C23.8703 26.8445 21.9941 25.1862 20.1297 23.5162C15.909 23.5162 11.6859 23.4951 7.46516 23.5279C8.66908 22.3544 9.80975 21.1177 10.9973 19.9278C11.3369 19.7873 11.721 19.8716 12.0794 19.8482C16.1432 19.8505 20.2093 19.8599 24.2731 19.8435C25.8237 19.7779 27.1541 18.4007 27.1681 16.8478C27.1728 13.8193 27.1916 10.7884 27.1564 7.75752Z" fill="black"/>
<path d="M5.51875 11.0741C4.71068 11.1702 4.74113 9.85852 5.50704 9.87258C9.41859 9.8515 13.3301 9.85618 17.2417 9.87023C17.853 9.86086 18.0404 10.608 17.6891 11.0273C13.6346 11.1397 9.57552 11.0507 5.51875 11.0741Z" fill="black"/>
</svg>
