<?xml version="1.0" encoding="UTF-8" ?>
<!DOCTYPE svg PUBLIC "-//W3C//DTD SVG 1.1//EN" "http://www.w3.org/Graphics/SVG/1.1/DTD/svg11.dtd">
<svg width="165pt" height="199pt" viewBox="0 0 165 199" version="1.1" xmlns="http://www.w3.org/2000/svg">
<g id="#000000ff">
<path fill="#000000" opacity="1.00" d=" M 107.91 0.00 L 113.09 0.00 C 125.44 0.90 137.07 8.66 142.26 19.95 C 147.66 31.07 146.37 45.08 139.06 55.04 C 134.61 61.17 128.22 65.73 121.02 68.06 C 126.35 71.81 129.26 77.79 133.13 82.85 C 137.92 89.78 143.15 96.42 147.54 103.61 C 151.08 109.94 147.77 117.55 142.73 121.96 C 146.42 126.77 150.65 131.17 154.12 136.13 C 154.48 138.07 152.84 138.89 151.15 138.57 C 141.43 137.72 131.75 136.46 122.05 135.46 C 108.23 145.13 94.49 154.91 80.74 164.68 C 81.88 157.90 82.90 151.09 84.04 144.30 C 98.19 134.36 112.33 124.40 126.39 114.33 C 131.80 110.79 133.33 102.72 129.59 97.45 C 123.10 88.15 116.58 78.86 109.90 69.69 C 106.33 69.26 102.78 68.64 99.29 67.74 C 104.63 75.08 109.75 82.58 115.07 89.94 C 117.19 92.97 119.76 96.05 120.03 99.91 C 120.73 105.52 117.87 111.20 113.10 114.16 C 103.12 121.13 93.24 128.23 83.28 135.23 C 80.92 136.92 78.35 138.37 76.31 140.46 C 75.29 142.36 74.94 144.53 74.38 146.59 C 72.52 154.54 70.35 162.41 68.50 170.37 C 67.43 170.50 66.36 170.66 65.28 170.68 C 61.51 165.95 58.97 160.35 55.65 155.31 C 51.28 157.59 46.01 158.75 41.30 156.78 C 37.56 155.48 35.19 152.14 33.01 149.03 C 25.44 138.26 17.71 127.61 10.24 116.77 C 5.72 110.56 7.64 101.17 13.84 96.82 C 33.34 82.92 52.92 69.14 72.44 55.28 C 74.83 53.48 77.82 52.96 80.69 52.42 C 76.74 45.01 74.89 36.32 76.66 28.02 C 79.44 13.13 92.83 1.20 107.91 0.00 M 108.83 16.85 C 105.96 18.07 102.64 19.05 100.87 21.84 C 98.08 25.74 98.80 31.53 102.24 34.80 C 104.13 36.78 106.89 37.45 109.38 38.34 C 109.38 41.78 109.41 45.21 109.28 48.65 C 105.58 47.82 103.47 44.87 102.25 41.51 C 100.04 40.73 96.89 42.46 98.12 45.07 C 99.13 50.16 104.24 52.76 108.85 53.87 C 109.57 55.56 110.72 58.32 113.07 57.37 C 114.78 57.15 114.90 55.00 115.77 53.83 C 120.28 52.30 124.25 48.11 123.66 43.06 C 123.62 38.17 119.44 34.85 115.25 33.26 C 115.22 29.70 115.19 26.13 115.58 22.59 C 117.15 24.86 117.40 27.86 119.14 29.97 C 121.62 31.52 123.85 28.27 123.21 25.98 C 122.88 21.67 119.22 18.91 115.69 17.09 C 114.95 15.68 114.95 13.28 112.90 13.20 C 110.46 12.49 109.60 15.17 108.83 16.85 M 74.73 59.67 C 55.43 73.39 36.03 86.98 16.79 100.78 C 12.36 103.71 11.21 110.31 14.41 114.55 C 22.25 125.74 30.18 136.86 38.08 148.02 C 39.98 151.04 43.38 153.06 47.00 152.95 C 50.77 153.19 53.28 149.74 56.78 149.06 C 60.40 152.91 62.59 157.84 65.43 162.26 C 67.58 154.54 69.20 146.69 71.42 139.00 C 71.71 137.56 72.92 136.67 74.02 135.85 C 86.45 126.98 99.00 118.27 111.38 109.33 C 115.38 106.54 116.40 100.40 113.55 96.44 C 106.52 86.21 99.21 76.16 92.09 65.99 C 90.05 63.06 87.76 60.19 84.74 58.23 C 81.48 56.70 77.51 57.49 74.73 59.67 Z" />
<path fill="#000000" opacity="1.00" d=" M 104.77 27.95 C 104.39 25.08 107.22 23.46 109.16 21.96 C 109.48 25.61 109.43 29.28 109.24 32.94 C 107.47 31.63 104.74 30.56 104.77 27.95 Z" />
<path fill="#000000" opacity="1.00" d=" M 115.50 38.71 C 116.50 40.06 118.07 41.22 118.17 43.02 C 118.68 45.32 117.05 47.20 115.50 48.65 C 115.20 45.34 115.19 42.02 115.50 38.71 Z" />
<path fill="#000000" opacity="1.00" d=" M 77.34 79.25 C 79.00 77.95 81.01 77.26 83.01 76.68 C 83.31 78.00 83.60 79.32 83.88 80.64 C 68.27 91.77 52.60 102.82 36.95 113.91 C 35.80 114.46 34.45 116.13 33.11 115.09 C 30.85 114.25 31.69 111.43 33.43 110.49 C 47.99 99.98 62.80 89.79 77.34 79.25 Z" />
<path fill="#000000" opacity="1.00" d=" M 81.41 97.39 C 83.34 96.25 84.90 98.51 85.60 100.03 C 74.20 108.54 62.48 116.59 50.89 124.83 C 48.68 126.35 46.59 128.11 44.15 129.27 C 42.48 129.12 41.72 127.45 41.71 125.97 C 42.77 124.64 44.17 123.65 45.54 122.67 C 57.50 114.25 69.35 105.67 81.41 97.39 Z" />
</g>
<g id="#ffffffff">
</g>
</svg>
