<svg width="42" height="50" viewBox="0 0 42 50" fill="none" xmlns="http://www.w3.org/2000/svg">
<path d="M27.2777 4.25027C27.286 3.73173 27.6759 3.10741 28.2692 3.31275C28.7483 3.39364 28.8084 3.92463 28.8665 4.31457C29.7211 4.63399 30.5507 5.24793 30.7353 6.19582C30.9178 6.71229 30.8058 7.50047 30.1546 7.59795C29.1859 7.51706 29.5717 6.19582 28.8478 5.75196C28.8105 6.62103 28.8312 7.4901 28.825 8.35917C29.8351 8.66822 30.8038 9.44395 30.8847 10.5681C31.1356 11.8707 30.1774 13.167 28.8914 13.4035C28.8084 13.8411 28.6176 14.3763 28.0783 14.3701C27.5474 14.3825 27.342 13.8702 27.2715 13.4346C26.0519 13.2479 24.7659 12.5178 24.5212 11.2111C24.293 10.6988 24.8675 10.174 25.3653 10.3835C25.7698 10.4582 25.7988 10.9456 25.9938 11.236C26.2199 11.7732 26.8193 11.9495 27.3233 12.1217C27.342 11.2671 27.3296 10.4126 27.3358 9.55803C26.7571 9.39624 26.1535 9.23031 25.6931 8.82378C24.7348 8.0356 24.4818 6.5028 25.2181 5.48439C25.6702 4.77088 26.4895 4.43902 27.2777 4.25027ZM26.2095 7.08149C26.2323 7.69336 26.865 7.94641 27.3233 8.19323C27.3399 7.31586 27.3399 6.4385 27.3213 5.56113C26.6949 5.79758 26.0747 6.33894 26.2095 7.08149ZM28.8478 9.75092C28.8147 10.5329 28.8209 11.3169 28.8437 12.0989C29.831 11.6695 29.7418 10.2259 28.8478 9.75092Z" fill="white"/>
<path d="M26.1058 0.145523C28.3293 -0.271381 30.7063 0.216042 32.571 1.49787C34.4107 2.73406 35.7444 4.69622 36.2007 6.86785C36.7525 9.3755 36.1136 12.1134 34.4958 14.1087C33.1663 15.7805 31.2062 16.9379 29.0947 17.2718C26.5746 17.7032 23.8886 16.9233 21.9762 15.2308C19.732 13.2977 18.6036 10.1699 19.1263 7.2495C19.6718 3.72966 22.5984 0.757399 26.1058 0.145523ZM27.2777 4.25027C26.4896 4.43902 25.6703 4.77088 25.2181 5.48439C24.4818 6.5028 24.7348 8.0356 25.6931 8.82378C26.1535 9.23031 26.7571 9.39625 27.3358 9.55803C27.3296 10.4126 27.342 11.2671 27.3234 12.1217C26.8193 11.9495 26.2199 11.7732 25.9938 11.236C25.7989 10.9456 25.7698 10.4582 25.3654 10.3835C24.8676 10.174 24.293 10.6988 24.5212 11.2111C24.7659 12.5178 26.0519 13.2479 27.2715 13.4346C27.342 13.8702 27.5474 14.3825 28.0784 14.3701C28.6176 14.3763 28.8085 13.8412 28.8914 13.4035C30.1774 13.1671 31.1357 11.8707 30.8847 10.5681C30.8038 9.44395 29.8352 8.66822 28.825 8.35917C28.8313 7.4901 28.8105 6.62103 28.8479 5.75196C29.5717 6.19583 29.186 7.51706 30.1546 7.59795C30.8059 7.50047 30.9179 6.71229 30.7353 6.19582C30.5507 5.24794 29.7211 4.63399 28.8665 4.31457C28.8085 3.92463 28.7483 3.39364 28.2692 3.31275C27.676 3.10741 27.286 3.73174 27.2777 4.25027Z" fill="black"/>
<path d="M26.2095 7.08148C26.0747 6.33894 26.6949 5.79758 27.3213 5.56113C27.34 6.43849 27.34 7.31586 27.3234 8.19323C26.865 7.9464 26.2324 7.69336 26.2095 7.08148Z" fill="black"/>
<path d="M28.8478 9.75093C29.7418 10.2259 29.831 11.6695 28.8437 12.0989C28.8209 11.3169 28.8146 10.5329 28.8478 9.75093Z" fill="black"/>
<path d="M3.32878 24.2889L18.376 13.6332C19.9227 12.7532 22.1077 13.0828 23.1532 14.5754C25.236 17.5003 27.3078 20.43 29.3791 23.3631C30.5336 24.8961 30.082 27.2939 28.5114 28.363C25.3433 30.6008 22.186 32.8539 19.0092 35.0835C18.3823 37.4446 17.8242 39.8259 17.2039 42.1881C17.1555 42.7075 16.4017 42.9399 16.1263 42.4863C15.3529 41.2603 14.6381 39.9956 13.8646 38.7696C12.3553 39.8643 10.0195 39.6299 8.87389 38.1135C6.74064 35.1498 4.64045 32.1597 2.53587 29.1756C1.45894 27.6508 1.89817 25.4341 3.32878 24.2889ZM3.60644 28.6529C5.62414 31.5062 7.63803 34.3622 9.66911 37.206C10.41 38.2685 12.0505 38.5992 13.0899 37.777C13.4731 37.5602 13.9396 37.072 14.3995 37.4093C15.0844 38.4454 15.7606 39.4935 16.3502 40.5855C16.8574 38.7483 17.2766 36.8844 17.7615 35.04C17.8551 34.7183 17.9209 34.333 18.2427 34.151C21.4235 31.8784 24.6379 29.6452 27.8098 27.356C28.8573 26.6629 29.1199 25.0477 28.3542 24.0516C26.3469 21.1765 24.3091 18.3231 22.2808 15.463C21.6114 14.3355 19.9722 14.0268 18.9078 14.7691C13.9872 18.2365 9.07542 21.7205 4.16504 25.2064C3.07557 25.9578 2.81432 27.5951 3.60644 28.6529Z" fill="black"/>
<path d="M7.96991 28.1517C7.98206 27.7757 8.37445 27.6327 8.61929 27.4191C12.0602 24.991 15.4944 22.5534 18.9312 20.1196C19.4718 19.7683 19.9603 19.2301 20.6534 19.2444C20.9889 19.5722 21.1278 20.1655 20.6201 20.4132C16.7239 23.1751 12.8318 25.9428 8.9267 28.6881C8.57832 29.0554 7.74638 28.6831 7.96991 28.1517Z" fill="black"/>
<path d="M27.1334 16.9373C28.6368 16.3003 30.5477 16.7696 31.4705 18.1538C33.2235 20.6292 34.995 23.0943 36.7231 25.5873C37.772 27.1779 37.1444 29.3759 35.6387 30.4393C36.5424 31.5128 37.3909 32.634 38.3219 33.6852C38.7332 33.9823 38.5038 34.7446 37.9702 34.6719C35.4823 34.4132 32.9928 34.1441 30.5061 33.8587C27.0616 36.298 23.603 38.7213 20.1775 41.1874C20.4818 39.5339 20.698 37.8654 20.9795 36.2081C21.1754 35.8971 21.5376 35.744 21.8165 35.5177C25.1343 33.1711 28.4581 30.8289 31.7651 28.4669C32.9926 27.5173 33.2824 25.6245 32.3964 24.349C30.6499 21.8748 28.9136 19.3905 27.1334 16.9373Z" fill="black"/>
<path d="M11.3917 32.1488C10.7878 32.6942 10.0546 31.6062 10.6878 31.175C13.8678 28.8972 17.0627 26.6405 20.263 24.3914C20.7565 24.0304 21.3412 24.5319 21.2968 25.0771C18.053 27.512 14.6889 29.7852 11.3917 32.1488Z" fill="black"/>
</svg>
