<svg width="51" height="42" viewBox="0 0 51 42" fill="none" xmlns="http://www.w3.org/2000/svg">
<path d="M0.575104 0C11.5642 1.64706 22.5047 3.59575 33.4785 5.33583C39.2162 14.8089 44.9535 24.2852 50.6913 33.7583C47.944 33.308 45.1782 32.9504 42.4499 32.3781C42.2062 34.1515 41.9657 35.9252 41.7966 37.7081C42.3046 38.2972 43.1012 38.8709 42.9411 39.7609C42.9182 40.8911 41.6779 41.7475 40.5961 41.3927C39.1932 41.2293 38.766 39.3406 39.6214 38.3759C39.9696 38.0505 40.4076 37.8478 40.8172 37.6089C40.9823 35.8058 41.3558 34.0229 41.3506 32.2111C39.0649 31.8887 36.7891 31.4891 34.5041 31.1603C34.2271 32.9621 33.9854 34.7717 33.6982 36.5756C29.7639 31.8073 25.8807 26.9998 21.9528 22.2323C15.9422 20.2144 9.93606 18.1872 3.92829 16.173C5.36248 15.4495 6.83058 14.7959 8.28818 14.1213C8.62497 14.0138 9.01619 13.6873 8.67965 13.3298C5.96135 8.89748 3.31859 4.41589 0.575104 0Z" fill="#151515"/>
</svg>
