<svg width="24" height="23" viewBox="0 0 24 23" fill="none" xmlns="http://www.w3.org/2000/svg">
<path fill-rule="evenodd" clip-rule="evenodd" d="M12.2103 0.253865C12.0698 0.248712 11.9292 0.248712 11.7887 0.253865C10.8613 0.287886 10.0263 0.603234 9.11066 1.12818C8.21839 1.63974 7.19116 2.38608 5.88778 3.33305L5.81693 3.38453C4.51353 4.33149 3.48627 5.07783 2.72402 5.76835C1.94183 6.47693 1.38386 7.17368 1.06493 8.04515C1.01662 8.17717 0.973165 8.31091 0.934655 8.44611C0.680434 9.33861 0.722297 10.2303 0.938608 11.2633C1.1494 12.27 1.54178 13.4775 2.03964 15.0098L3.7742 20.3482C4.14806 21.4988 5.22032 22.2779 6.43016 22.2779C7.9725 22.2779 9.22281 21.0276 9.22281 19.4852V16.7363C9.22281 16.092 9.74512 15.5697 10.3894 15.5697H13.6096C14.2539 15.5697 14.7762 16.092 14.7762 16.7363V19.4852C14.7762 21.0276 16.0265 22.2779 17.5689 22.2779C18.7787 22.2779 19.851 21.4988 20.2248 20.3482L21.9594 15.0097C22.4573 13.4775 22.8496 12.2699 23.0604 11.2633C23.2767 10.2303 23.3186 9.33861 23.0644 8.44611C23.0259 8.31091 22.9824 8.17717 22.9341 8.04515C22.6152 7.17368 22.0572 6.47693 21.275 5.76835C20.5128 5.07782 19.4855 4.33149 18.1821 3.38452L18.1112 3.33303C16.8079 2.38607 15.7806 1.63973 14.8884 1.12818C13.9728 0.603234 13.1377 0.287886 12.2103 0.253865ZM11.8437 1.75286C11.9475 1.74905 12.0515 1.74905 12.1553 1.75286C12.7508 1.7747 13.3438 1.97167 14.1423 2.42948C14.9561 2.89603 15.9184 3.59396 17.265 4.57232C18.6116 5.55068 19.5728 6.25026 20.268 6.88002C20.9501 7.49798 21.3207 8.00112 21.5255 8.56067C21.5612 8.65824 21.5933 8.75709 21.6218 8.85703C21.785 9.43007 21.7809 10.055 21.5923 10.9558C21.4 11.874 21.0336 13.0049 20.5193 14.5879L18.7983 19.8847C18.6252 20.4173 18.1289 20.7779 17.5689 20.7779C16.855 20.7779 16.2762 20.1991 16.2762 19.4852V16.7363C16.2762 15.2636 15.0823 14.0697 13.6096 14.0697H10.3894C8.9167 14.0697 7.72281 15.2636 7.72281 16.7363V19.4852C7.72281 20.1991 7.14407 20.7779 6.43016 20.7779C5.87016 20.7779 5.37384 20.4173 5.20079 19.8847L3.47976 14.5879C2.96541 13.0049 2.59902 11.874 2.40677 10.9558C2.21812 10.055 2.21405 9.43007 2.37727 8.85703C2.40574 8.7571 2.43786 8.65824 2.47357 8.56067C2.67834 8.00112 3.04893 7.49798 3.73108 6.88002C4.42627 6.25026 5.38742 5.55068 6.73402 4.57232C8.08061 3.59396 9.04296 2.89603 9.85673 2.42948C10.6552 1.97167 11.2483 1.7747 11.8437 1.75286Z" fill="#1D1B20"/>
</svg>
