<svg width="748" height="954" viewBox="0 0 748 954" fill="none" xmlns="http://www.w3.org/2000/svg">
<path d="M373.9 67.3C371.328 67.3 368.86 66.278 367.041 64.4589C365.222 62.6398 364.2 60.1726 364.2 57.6V9.69998C364.445 7.28442 365.578 5.04576 367.379 3.41785C369.181 1.78993 371.522 0.888672 373.95 0.888672C376.378 0.888672 378.72 1.78993 380.521 3.41785C382.322 5.04576 383.455 7.28442 383.7 9.69998V57.6C383.7 58.8823 383.446 60.1518 382.952 61.3352C382.459 62.5187 381.735 63.5925 380.824 64.4945C379.913 65.3966 378.831 66.109 377.643 66.5905C376.455 67.0721 375.182 67.3132 373.9 67.3Z" fill="#3DB2E4"/>
<path d="M597.6 160C595.699 159.951 593.853 159.35 592.288 158.27C590.723 157.19 589.506 155.678 588.785 153.918C588.064 152.159 587.871 150.227 588.229 148.36C588.586 146.492 589.48 144.769 590.8 143.4L624.7 109.5C625.581 108.524 626.652 107.737 627.848 107.187C629.043 106.638 630.337 106.337 631.652 106.303C632.967 106.27 634.276 106.504 635.497 106.992C636.719 107.48 637.829 108.211 638.759 109.141C639.689 110.071 640.42 111.181 640.908 112.403C641.396 113.624 641.63 114.933 641.597 116.248C641.563 117.563 641.263 118.857 640.713 120.052C640.163 121.248 639.376 122.319 638.4 123.2L604.5 157.1C602.674 158.942 600.193 159.984 597.6 160Z" fill="#3DB2E4"/>
<path d="M116.4 641.2C114.49 641.197 112.624 640.629 111.035 639.57C109.446 638.51 108.205 637.004 107.468 635.242C106.731 633.48 106.531 631.54 106.893 629.665C107.254 627.789 108.161 626.062 109.5 624.7L143.4 590.8C144.281 589.824 145.352 589.037 146.548 588.487C147.743 587.938 149.037 587.637 150.352 587.603C151.667 587.57 152.976 587.804 154.197 588.292C155.419 588.78 156.529 589.511 157.459 590.441C158.389 591.371 159.12 592.481 159.608 593.703C160.096 594.924 160.33 596.233 160.297 597.548C160.263 598.863 159.962 600.157 159.413 601.352C158.863 602.548 158.076 603.619 157.1 604.5L123.2 638.4C122.306 639.291 121.245 639.997 120.079 640.477C118.912 640.957 117.662 641.203 116.4 641.2Z" fill="#3DB2E4"/>
<path d="M738.2 383.7H690.3C687.885 383.455 685.646 382.322 684.018 380.521C682.39 378.719 681.489 376.378 681.489 373.95C681.489 371.522 682.39 369.18 684.018 367.379C685.646 365.578 687.885 364.445 690.3 364.2H738.2C740.616 364.445 742.854 365.578 744.482 367.379C746.11 369.18 747.011 371.522 747.011 373.95C747.011 376.378 746.11 378.719 744.482 380.521C742.854 382.322 740.616 383.455 738.2 383.7Z" fill="#3DB2E4"/>
<path d="M57.6 383.7H9.69995C7.28439 383.455 5.04576 382.322 3.41785 380.521C1.78993 378.719 0.888672 376.378 0.888672 373.95C0.888672 371.522 1.78993 369.18 3.41785 367.379C5.04576 365.578 7.28439 364.445 9.69995 364.2H57.6C60.0155 364.445 62.2542 365.578 63.8821 367.379C65.51 369.18 66.4113 371.522 66.4113 373.95C66.4113 376.378 65.51 378.719 63.8821 380.521C62.2542 382.322 60.0155 383.455 57.6 383.7Z" fill="#3DB2E4"/>
<path d="M631.5 641.2C630.238 641.203 628.988 640.957 627.821 640.477C626.654 639.997 625.594 639.291 624.7 638.4L590.8 604.5C589.133 602.654 588.239 600.239 588.303 597.752C588.366 595.266 589.382 592.9 591.141 591.141C592.899 589.383 595.266 588.367 597.752 588.303C600.238 588.24 602.654 589.134 604.5 590.8L638.4 624.7C639.739 626.062 640.646 627.789 641.007 629.664C641.369 631.54 641.168 633.48 640.432 635.242C639.695 637.004 638.454 638.51 636.865 639.57C635.276 640.629 633.41 641.197 631.5 641.2Z" fill="#3DB2E4"/>
<path d="M150.3 160C147.707 159.984 145.226 158.942 143.4 157.1L109.5 123.2C108.523 122.319 107.736 121.248 107.187 120.052C106.637 118.857 106.337 117.563 106.303 116.248C106.269 114.933 106.504 113.624 106.992 112.403C107.479 111.181 108.211 110.071 109.141 109.141C110.071 108.211 111.181 107.48 112.402 106.992C113.624 106.504 114.932 106.27 116.247 106.303C117.562 106.337 118.857 106.638 120.052 107.187C121.247 107.737 122.318 108.524 123.2 109.5L157.1 143.4C158.42 144.769 159.313 146.492 159.671 148.36C160.029 150.227 159.836 152.159 159.115 153.918C158.394 155.678 157.177 157.19 155.612 158.27C154.046 159.35 152.201 159.951 150.3 160Z" fill="#3DB2E4"/>
<path d="M496.1 91.9C494.827 91.8738 493.57 91.6021 492.4 91.1C491.224 90.6079 490.157 89.889 489.259 88.9843C488.362 88.0797 487.651 87.007 487.168 85.8275C486.685 84.6481 486.439 83.385 486.445 82.1106C486.45 80.8361 486.707 79.5752 487.2 78.4L505.7 34.2C506.192 33.0246 506.911 31.9578 507.816 31.0604C508.721 30.163 509.794 29.4526 510.973 28.9697C512.152 28.4869 513.415 28.241 514.689 28.2462C515.964 28.2514 517.225 28.5075 518.4 29C519.575 29.4924 520.642 30.2115 521.539 31.1163C522.437 32.021 523.147 33.0937 523.63 34.273C524.113 35.4523 524.359 36.7152 524.354 37.9895C524.348 39.2638 524.092 40.5246 523.6 41.7L505.1 85.9C504.343 87.6653 503.09 89.1724 501.492 90.2378C499.894 91.3031 498.02 91.8806 496.1 91.9Z" fill="#3DB2E4"/>
<path d="M666.7 263.7C664.44 263.719 662.244 262.949 660.492 261.522C658.739 260.095 657.54 258.1 657.101 255.883C656.663 253.666 657.012 251.365 658.089 249.378C659.166 247.391 660.903 245.843 663 245L707.4 226.8C709.787 225.832 712.461 225.852 714.833 226.855C717.205 227.859 719.082 229.763 720.05 232.15C721.018 234.537 720.998 237.211 719.995 239.583C718.991 241.955 717.087 243.832 714.7 244.8L670.4 263C669.224 263.473 667.967 263.711 666.7 263.7Z" fill="#3DB2E4"/>
<path d="M36.9001 521.8C34.6401 521.819 32.4443 521.049 30.6918 519.622C28.9394 518.195 27.7404 516.2 27.3017 513.983C26.863 511.766 27.2122 509.465 28.2891 507.478C29.366 505.491 31.103 503.943 33.2 503.1L77.5001 484.9C79.887 483.919 82.566 483.926 84.9477 484.92C87.3294 485.914 89.2187 487.813 90.2 490.2C91.1813 492.587 91.1743 495.266 90.1804 497.648C89.1864 500.029 87.287 501.919 84.9001 502.9L40.5001 521.1C39.3592 521.573 38.1349 521.811 36.9001 521.8Z" fill="#3DB2E4"/>
<path d="M710 524.3C708.699 524.318 707.408 524.081 706.2 523.6L662 505.1C659.626 504.105 657.745 502.209 656.769 499.827C655.794 497.445 655.805 494.774 656.8 492.4C657.794 490.026 659.691 488.145 662.073 487.17C664.454 486.194 667.126 486.205 669.5 487.2L713.7 505.7C715.735 506.581 717.406 508.133 718.436 510.097C719.466 512.061 719.791 514.319 719.359 516.494C718.926 518.669 717.761 520.63 716.058 522.05C714.355 523.471 712.217 524.265 710 524.3Z" fill="#3DB2E4"/>
<path d="M82.1 261.5C80.8267 261.474 79.5705 261.202 78.4001 260.7L34.2 242.2C33.0158 241.719 31.9396 241.006 31.0345 240.103C30.1294 239.201 29.4136 238.126 28.9293 236.944C28.4449 235.761 28.2017 234.493 28.2138 233.215C28.226 231.936 28.4933 230.674 29.0001 229.5C30.0147 227.143 31.9133 225.278 34.2879 224.306C36.6626 223.334 39.3238 223.332 41.7 224.3L85.9001 242.8C87.0758 243.292 88.1429 244.011 89.0406 244.916C89.9383 245.82 90.6489 246.893 91.1318 248.072C91.6147 249.252 91.8605 250.515 91.855 251.789C91.8496 253.064 91.593 254.325 91.1 255.5C90.3436 257.265 89.0899 258.772 87.4919 259.838C85.8939 260.903 84.0205 261.481 82.1 261.5Z" fill="#3DB2E4"/>
<path d="M254 90.8999C252.074 90.9065 250.189 90.3395 248.586 89.2709C246.983 88.2023 245.735 86.6807 245 84.8999L226.8 40.4999C226.321 39.318 226.079 38.0533 226.088 36.7779C226.098 35.5026 226.358 34.2416 226.855 33.0669C227.858 30.6946 229.763 28.818 232.15 27.8499C234.537 26.8819 237.211 26.9017 239.583 27.905C241.955 28.9083 243.832 30.813 244.8 33.1999L263 77.4999C263.609 78.9761 263.844 80.5798 263.685 82.1687C263.525 83.7577 262.976 85.2826 262.086 86.6083C261.195 87.9339 259.991 89.0193 258.581 89.7679C257.17 90.5166 255.597 90.9054 254 90.8999Z" fill="#3DB2E4"/>
<path d="M459 835.8H295C290.561 835.774 286.314 833.992 283.185 830.844C280.056 827.696 278.3 823.438 278.3 819C278.3 814.571 280.059 810.323 283.191 807.191C286.323 804.059 290.571 802.3 295 802.3H459C463.429 802.3 467.677 804.059 470.808 807.191C473.94 810.323 475.7 814.571 475.7 819C475.7 823.438 473.944 827.696 470.815 830.844C467.686 833.992 463.438 835.774 459 835.8Z" fill="#3DB2E4"/>
<path d="M459 888.4H295C290.561 888.374 286.314 886.592 283.185 883.444C280.056 880.296 278.3 876.038 278.3 871.6C278.3 867.171 280.059 862.923 283.191 859.791C286.323 856.659 290.571 854.9 295 854.9H459C463.429 854.9 467.677 856.659 470.808 859.791C473.94 862.923 475.7 867.171 475.7 871.6C475.7 876.038 473.944 880.296 470.815 883.444C467.686 886.592 463.438 888.374 459 888.4Z" fill="#3DB2E4"/>
<path d="M337.2 908.2C336.249 908.215 335.313 908.436 334.456 908.847C333.598 909.258 332.84 909.849 332.232 910.58C331.624 911.312 331.181 912.165 330.934 913.084C330.687 914.002 330.641 914.963 330.8 915.9C332.803 926.556 338.466 936.177 346.811 943.1C355.156 950.023 365.657 953.812 376.5 953.812C387.343 953.812 397.844 950.023 406.189 943.1C414.534 936.177 420.197 926.556 422.2 915.9C422.376 914.96 422.344 913.993 422.103 913.067C421.863 912.142 421.422 911.281 420.811 910.545C420.199 909.81 419.433 909.218 418.567 908.813C417.701 908.408 416.756 908.198 415.8 908.2H337.2Z" fill="#3DB2E4"/>
<path d="M441.6 781.2H310C298.955 781.135 288.337 776.927 280.245 769.409C272.153 761.891 267.177 751.61 266.3 740.6C260.7 666.4 230.4 619.3 198.3 569.5C163.4 515.2 127.2 459.1 127.2 368.3C127.2 245.7 214.9 142.5 335.7 123C364.248 118.429 393.367 118.767 421.8 124C539.2 146 624.4 248.7 624.4 368.3C624.4 459.1 588.3 515.2 553.3 569.5C521.2 619.3 490.9 666.4 485.4 740.6C484.5 751.619 479.503 761.901 471.395 769.417C463.286 776.932 452.656 781.137 441.6 781.2ZM375.8 152.2C364.114 152.189 352.445 153.091 340.9 154.9C235.8 171.9 159.6 261.7 159.6 368.3C159.6 449.6 191.6 499.3 225.5 552C258.4 603 292.3 655.7 298.5 738.2C298.75 741.083 300.068 743.768 302.195 745.73C304.323 747.691 307.107 748.786 310 748.8H441.6C444.5 748.809 447.297 747.722 449.43 745.756C451.562 743.79 452.873 741.091 453.1 738.2C459.3 655.7 493.2 603 526.1 552C560 499.3 592.1 449.6 592.1 368.3C592.1 264.3 518 174.9 415.9 155.8C402.669 153.395 389.248 152.19 375.8 152.2Z" fill="#3DB2E4"/>
<path d="M255.4 524.1C252.84 524.113 250.314 523.511 248.034 522.345C245.754 521.179 243.788 519.484 242.3 517.4C152.4 394 218.7 278.3 221.5 273.4C222.479 271.399 223.861 269.622 225.558 268.179C227.256 266.737 229.232 265.66 231.365 265.015C233.497 264.371 235.739 264.173 237.952 264.435C240.164 264.697 242.299 265.412 244.222 266.535C246.145 267.659 247.816 269.167 249.131 270.966C250.445 272.765 251.374 274.815 251.86 276.989C252.346 279.163 252.378 281.414 251.955 283.601C251.532 285.788 250.662 287.864 249.4 289.7C247 294 191.4 392.6 268.4 498.4C270.925 501.864 271.975 506.187 271.319 510.423C270.663 514.659 268.355 518.463 264.9 521C262.121 522.973 258.808 524.054 255.4 524.1Z" fill="#3DB2E4"/>
</svg>
