<?xml version="1.0" encoding="UTF-8" ?>
<!DOCTYPE svg PUBLIC "-//W3C//DTD SVG 1.1//EN" "http://www.w3.org/Graphics/SVG/1.1/DTD/svg11.dtd">
<svg width="748pt" height="954pt" viewBox="0 0 748 954" version="1.1" xmlns="http://www.w3.org/2000/svg">
<g id="#3db2e4ff">
<path fill="#3db2e4" opacity="1.00" d=" M 370.42 1.55 C 376.34 -1.05 383.77 3.90 383.71 10.35 C 383.80 25.92 383.73 41.50 383.74 57.07 C 383.98 62.04 380.07 66.89 375.01 67.23 C 369.68 68.00 364.17 63.53 364.27 58.04 C 364.22 42.35 364.28 26.65 364.24 10.96 C 363.90 6.88 366.69 3.01 370.42 1.55 Z" />
<path fill="#3db2e4" opacity="1.00" d=" M 232.51 27.71 C 237.25 25.82 243.09 28.57 244.83 33.32 C 250.89 47.93 256.83 62.59 262.88 77.20 C 264.03 79.89 264.06 83.05 262.65 85.64 C 260.31 90.69 253.23 92.45 248.69 89.34 C 246.69 88.21 245.46 86.17 244.63 84.09 C 239.50 71.31 234.17 58.60 229.00 45.83 C 227.77 42.62 225.76 39.46 226.14 35.88 C 226.39 32.19 229.09 28.96 232.51 27.71 Z" />
<path fill="#3db2e4" opacity="1.00" d=" M 511.52 28.76 C 516.76 26.80 523.22 30.39 524.14 35.95 C 525.01 39.44 523.12 42.69 521.88 45.82 C 516.26 59.15 510.74 72.52 505.10 85.83 C 503.16 91.06 496.21 93.61 491.44 90.61 C 487.17 88.32 485.23 82.73 487.24 78.31 C 493.12 64.23 499.03 50.16 504.90 36.07 C 506.02 32.88 508.18 29.86 511.52 28.76 Z" />
<path fill="#3db2e4" opacity="1.00" d=" M 113.44 107.57 C 116.77 106.29 120.79 107.10 123.27 109.70 C 134.34 120.65 145.29 131.73 156.34 142.70 C 158.88 145.03 160.51 148.61 159.66 152.07 C 158.85 156.91 153.86 160.69 148.96 159.93 C 146.46 159.65 144.39 158.03 142.67 156.31 C 131.69 145.27 120.65 134.30 109.66 123.27 C 104.75 118.68 107.04 109.50 113.44 107.57 Z" />
<path fill="#3db2e4" opacity="1.00" d=" M 629.26 107.19 C 634.31 105.99 639.89 109.75 640.74 114.85 C 641.39 118.07 640.22 121.56 637.77 123.75 C 626.38 135.03 615.14 146.45 603.73 157.71 C 598.88 162.48 589.99 159.23 588.39 152.91 C 587.41 149.43 588.50 145.56 591.11 143.07 C 601.72 132.33 612.48 121.73 623.11 111.00 C 624.78 109.23 626.82 107.69 629.26 107.19 Z" />
<path fill="#3db2e4" opacity="1.00" d=" M 352.64 120.87 C 410.02 115.39 469.17 130.46 516.57 163.35 C 549.81 186.19 577.40 217.23 596.04 253.01 C 616.24 291.24 625.88 334.84 624.26 378.02 C 623.29 421.03 612.42 463.67 593.09 502.08 C 567.16 554.99 527.73 600.35 505.37 655.15 C 494.10 682.37 487.38 711.43 485.29 740.81 C 484.05 757.25 472.77 772.37 457.33 778.19 C 449.96 781.32 441.82 781.37 433.95 781.25 C 392.97 781.24 351.98 781.25 311.00 781.24 C 304.89 781.21 298.75 780.18 293.15 777.70 C 278.37 771.71 267.65 756.99 266.36 741.12 C 264.75 719.77 260.95 698.56 254.54 678.12 C 242.89 640.30 222.15 606.22 200.72 573.26 C 178.31 538.68 155.92 503.46 142.65 464.18 C 129.84 426.67 125.10 386.50 128.08 347.02 C 131.24 309.22 143.06 272.13 162.68 239.66 C 182.13 207.23 209.17 179.39 241.05 159.04 C 274.43 137.55 313.12 124.46 352.64 120.87 M 230.40 265.65 C 225.83 267.27 222.37 271.04 220.39 275.38 C 192.02 330.33 187.24 397.25 208.81 455.35 C 217.03 477.77 228.67 498.90 242.85 518.09 C 247.55 524.39 257.12 525.89 263.71 521.79 C 271.36 517.39 274.01 506.34 268.85 499.09 C 260.33 487.28 252.66 474.83 246.51 461.61 C 231.62 430.45 225.25 395.26 228.60 360.87 C 230.94 337.04 237.24 313.44 248.16 292.09 C 251.33 287.33 253.31 281.32 251.19 275.71 C 248.59 267.35 238.58 262.51 230.40 265.65 Z" />
<path fill="#3db2e4" opacity="1.00" d=" M 35.16 224.02 C 37.58 223.20 40.23 223.62 42.53 224.63 C 56.84 230.67 71.19 236.62 85.50 242.65 C 89.60 244.18 92.48 248.66 91.76 253.04 C 91.22 258.14 86.00 262.15 80.94 261.42 C 78.57 260.97 76.41 259.85 74.19 258.95 C 60.95 253.40 47.73 247.83 34.47 242.34 C 30.68 240.93 27.98 236.97 28.23 232.92 C 28.33 228.86 31.22 225.08 35.16 224.02 Z" />
<path fill="#3db2e4" opacity="1.00" d=" M 707.49 226.80 C 712.83 224.42 719.74 228.13 720.56 233.94 C 721.59 238.40 718.89 243.14 714.70 244.81 C 699.85 250.84 685.07 257.05 670.21 263.02 C 664.96 265.31 658.19 261.75 657.16 256.12 C 656.01 251.54 658.79 246.56 663.18 244.94 C 677.94 238.89 692.69 232.79 707.49 226.80 Z" />
<path fill="#3db2e4" opacity="1.00" d=" M 8.44 364.46 C 24.64 363.98 40.89 364.38 57.11 364.26 C 62.98 364.14 67.57 370.45 66.17 376.03 C 65.38 380.69 60.72 384.00 56.09 383.74 C 41.05 383.75 26.02 383.75 10.98 383.74 C 6.05 384.03 1.42 379.97 0.96 375.09 C 0.29 370.35 3.70 365.36 8.44 364.46 Z" />
<path fill="#3db2e4" opacity="1.00" d=" M 689.29 364.38 C 705.51 364.09 721.75 364.30 737.98 364.28 C 744.07 364.36 748.60 371.20 746.57 376.90 C 745.40 381.00 741.23 383.90 736.99 383.73 C 721.97 383.78 706.95 383.72 691.94 383.76 C 687.54 383.99 683.18 381.17 681.94 376.88 C 680.05 371.60 683.82 365.37 689.29 364.38 Z" />
<path fill="#3db2e4" opacity="1.00" d=" M 78.40 484.62 C 84.78 482.25 92.01 488.49 90.82 495.13 C 90.46 499.19 87.20 502.37 83.42 503.53 C 69.42 509.22 55.43 514.96 41.47 520.73 C 38.38 522.05 34.56 522.34 31.70 520.32 C 27.40 517.82 25.75 511.66 28.37 507.39 C 29.84 504.35 33.16 503.08 36.08 501.88 C 50.23 496.23 64.23 490.20 78.40 484.62 Z" />
<path fill="#3db2e4" opacity="1.00" d=" M 662.25 487.13 C 665.18 485.86 668.45 486.61 671.24 487.90 C 685.04 493.73 698.86 499.49 712.69 505.26 C 715.80 506.34 718.42 508.80 719.21 512.08 C 720.87 517.51 716.67 523.69 711.03 524.21 C 707.89 524.73 705.05 523.10 702.27 521.97 C 689.00 516.41 675.76 510.81 662.46 505.33 C 659.09 504.02 656.44 500.83 656.10 497.18 C 655.53 492.93 658.24 488.59 662.25 487.13 Z" />
<path fill="#3db2e4" opacity="1.00" d=" M 147.22 588.18 C 151.40 586.60 156.56 588.28 158.85 592.16 C 161.06 595.68 160.80 600.83 157.73 603.78 C 146.58 614.93 135.40 626.05 124.29 637.24 C 121.43 640.90 116.10 642.44 111.93 640.11 C 106.17 637.38 104.98 628.84 109.63 624.54 C 120.39 613.67 131.27 602.93 142.04 592.07 C 143.57 590.55 145.15 588.95 147.22 588.18 Z" />
<path fill="#3db2e4" opacity="1.00" d=" M 593.39 588.46 C 597.02 586.71 601.58 587.68 604.27 590.66 C 615.61 601.99 626.95 613.32 638.27 624.67 C 642.28 628.33 642.12 635.52 637.76 638.84 C 634.15 642.10 627.93 642.03 624.67 638.30 C 613.17 626.78 601.65 615.28 590.15 603.76 C 585.53 599.33 587.52 590.75 593.39 588.46 Z" />
<path fill="#3db2e4" opacity="1.00" d=" M 293.36 802.39 C 348.27 802.06 403.19 802.35 458.10 802.25 C 465.47 801.90 472.79 806.81 474.92 813.93 C 478.45 823.79 470.47 835.52 459.98 835.71 C 404.97 835.79 349.94 835.72 294.93 835.75 C 286.76 835.91 279.19 829.16 278.42 821.03 C 277.08 812.09 284.32 802.98 293.36 802.39 Z" />
<path fill="#3db2e4" opacity="1.00" d=" M 292.24 855.12 C 305.79 854.56 319.39 855.03 332.96 854.88 C 374.66 854.87 416.35 854.89 458.04 854.87 C 461.89 854.79 465.83 855.82 468.94 858.15 C 474.38 862.14 477.01 869.59 475.09 876.10 C 473.23 883.15 466.32 888.46 459.02 888.38 C 404.35 888.36 349.68 888.38 295.01 888.37 C 286.24 888.61 278.38 880.84 278.31 872.11 C 277.83 863.98 284.24 856.33 292.24 855.12 Z" />
<path fill="#3db2e4" opacity="1.00" d=" M 335.33 908.48 C 361.88 907.94 388.47 908.42 415.04 908.24 C 418.87 907.71 422.74 911.10 422.25 915.05 C 419.89 931.15 408.01 945.31 392.76 950.86 C 382.39 954.78 370.57 954.81 360.21 950.84 C 345.22 945.43 333.63 931.66 330.84 915.97 C 330.09 912.80 332.32 909.40 335.33 908.48 Z" />
</g>
<g id="#ffffffff">
</g>
</svg>
