<svg width="55" height="69" viewBox="0 0 55 69" fill="none" xmlns="http://www.w3.org/2000/svg">
<path d="M12.7107 5.32326C14.6915 2.48308 18.1747 1.3464 21.4293 0.7613C23.4528 0.46875 25.4671 1.00509 27.4296 1.43477C29.895 2.07168 32.5096 2.97676 34.1583 5.03375C35.1883 6.62754 35.7216 8.51083 35.8679 10.3941C35.9593 11.802 36.328 13.216 36.0751 14.627C35.9441 15.4559 35.749 16.2756 35.557 17.0954C37.1234 18.9786 36.5261 21.6299 35.6759 23.6899C35.3102 24.595 34.3838 25.0034 33.5244 25.2929C33.1709 26.9842 32.6711 28.6511 31.9337 30.2205C32.1165 32.1282 32.1409 34.0511 32.3055 35.9618C32.6742 36.7023 33.046 37.6958 33.9602 37.8695C38.5557 39.1463 43.3828 39.5882 47.835 41.3587C49.825 42.1084 51.0835 43.9856 51.8332 45.8872C53.1101 49.1235 53.5032 52.625 53.6708 56.0746C53.8536 60.1551 54.0243 64.2386 54.2041 68.3191C44.6962 68.316 35.1883 68.3221 25.6835 68.316C25.9151 61.499 26.0583 54.6789 26.2503 47.8588C25.8389 47.4139 25.4305 46.969 25.0222 46.5271C25.7871 45.6799 26.552 44.8328 27.2833 43.9612C26.0248 43.178 24.7601 42.4009 23.5168 41.5903C22.2429 42.3796 20.9752 43.175 19.7106 43.9734C20.4694 44.8267 21.2129 45.6921 21.9778 46.5424C21.5664 46.9812 21.1581 47.4231 20.7497 47.8649C20.9112 54.685 21.088 61.502 21.2495 68.3191C11.7629 68.3191 2.27944 68.3282 -7.20407 68.316C-7.04865 65.4637 -6.98161 62.6052 -6.82315 59.7498C-6.66773 55.7729 -6.59459 51.7351 -5.50667 47.8771C-4.99471 46.0853 -4.28466 44.2903 -3.03828 42.8763C-2.14234 41.8524 -0.850244 41.31 0.411379 40.8864C4.51927 39.5333 8.84353 39.0122 13.0063 37.8725C13.887 37.7354 14.2283 36.8242 14.6001 36.1355C14.8103 34.7672 14.786 33.3685 14.8103 31.9849C14.8713 31.3084 14.4782 30.7325 14.21 30.1504C13.4451 28.6206 12.9789 26.9628 12.6375 25.2929C11.7203 25.0094 10.7756 24.531 10.419 23.5741C9.5871 21.4409 8.96543 18.5459 10.928 16.8241C10.7756 15.6052 10.48 14.374 10.6964 13.1429C11.1078 10.4916 10.9919 7.56005 12.7107 5.32326ZM16.5626 7.03589C15.4777 7.36806 15.1151 8.5474 14.6123 9.4342C14.1826 10.2905 13.4512 10.9823 13.1465 11.9026C12.9606 12.9174 13.1891 13.9443 13.2653 14.9561C13.4543 16.4554 13.0185 17.9364 12.6162 19.3657C12.2871 19.0183 11.961 18.6709 11.638 18.3235C10.9645 19.7984 11.379 21.4562 11.9519 22.8915C12.2475 24.0008 14.0912 23.1353 14.1582 24.3969C14.7311 27.4138 15.7276 30.5649 18.0589 32.698C19.4089 33.9444 21.0758 35.1024 22.9926 35.0445C25.1654 35.1756 27.0121 33.7768 28.4749 32.3323C30.6111 30.1626 31.4674 27.1182 32.0373 24.211C32.2628 23.2481 33.7225 23.888 34.1156 23.0622C34.7281 21.8402 34.8775 20.4475 34.8714 19.0975C34.4417 18.9756 33.9175 18.9969 33.6189 18.6069C33.3629 16.7571 33.0368 14.9165 32.6529 13.088C32.3359 11.5156 32.6437 9.72065 31.76 8.31275C30.6477 7.52043 29.2002 7.40767 27.8776 7.35892C26.4179 7.29187 25.0344 7.87698 23.5838 7.88916C22.246 7.91659 21.091 7.10903 19.7928 6.92619C18.7293 6.77382 17.5987 6.69458 16.5626 7.03589ZM22.9774 36.7206C20.4023 36.7572 18.1838 35.1817 16.4316 33.4416C16.4133 34.0724 16.395 34.7063 16.3706 35.3371C18.7354 37.2905 21.1367 39.192 23.5076 41.1363C25.848 39.2103 28.2158 37.3087 30.5745 35.4011C30.5349 34.4777 30.4923 33.5544 30.4557 32.634C28.5602 34.7916 26.0126 36.8364 22.9774 36.7206Z" fill="#3DB2E4" fill-opacity="0.5"/>
</svg>
