<svg width="63" height="69" viewBox="0 0 63 69" fill="none" xmlns="http://www.w3.org/2000/svg">
<path d="M20.7107 5.32326C22.6915 2.48308 26.1747 1.3464 29.4293 0.7613C31.4528 0.46875 33.4671 1.00509 35.4296 1.43477C37.895 2.07168 40.5096 2.97676 42.1583 5.03375C43.1883 6.62754 43.7216 8.51083 43.8679 10.3941C43.9593 11.802 44.328 13.216 44.0751 14.627C43.944 15.4559 43.749 16.2756 43.557 17.0954C45.1234 18.9786 44.5261 21.6299 43.6759 23.6899C43.3102 24.595 42.3838 25.0034 41.5244 25.2929C41.1709 26.9842 40.6711 28.6511 39.9337 30.2205C40.1165 32.1282 40.1409 34.0511 40.3055 35.9618C40.6742 36.7023 41.046 37.6958 41.9602 37.8695C46.5557 39.1463 51.3827 39.5882 55.835 41.3587C57.825 42.1084 59.0835 43.9856 59.8332 45.8872C61.1101 49.1235 61.5032 52.625 61.6708 56.0746C61.8536 60.1551 62.0243 64.2386 62.2041 68.3191C52.6962 68.316 43.1883 68.3221 33.6835 68.316C33.9151 61.499 34.0583 54.6789 34.2503 47.8588C33.8389 47.4139 33.4305 46.969 33.0222 46.5271C33.7871 45.6799 34.552 44.8328 35.2833 43.9612C34.0248 43.178 32.7601 42.4009 31.5168 41.5903C30.2429 42.3796 28.9752 43.175 27.7106 43.9734C28.4694 44.8267 29.2129 45.6921 29.9778 46.5424C29.5664 46.9812 29.1581 47.4231 28.7497 47.8649C28.9112 54.685 29.088 61.502 29.2495 68.3191C19.7629 68.3191 10.2794 68.3282 0.795927 68.316C0.951344 65.4637 1.01839 62.6052 1.17685 59.7498C1.33227 55.7729 1.40541 51.7351 2.49333 47.8771C3.00529 46.0853 3.71533 44.2903 4.96172 42.8763C5.85766 41.8524 7.14975 41.31 8.41138 40.8864C12.5193 39.5333 16.8435 39.0122 21.0063 37.8725C21.887 37.7354 22.2283 36.8242 22.6001 36.1355C22.8103 34.7672 22.786 33.3685 22.8103 31.9849C22.8713 31.3084 22.4782 30.7325 22.21 30.1504C21.4451 28.6206 20.9788 26.9628 20.6375 25.2929C19.7203 25.0094 18.7756 24.531 18.419 23.5741C17.5871 21.4409 16.9654 18.5459 18.928 16.8241C18.7756 15.6052 18.48 14.374 18.6963 13.1429C19.1077 10.4916 18.9919 7.56005 20.7107 5.32326ZM24.5626 7.03589C23.4777 7.36806 23.1151 8.5474 22.6123 9.4342C22.1826 10.2905 21.4512 10.9823 21.1465 11.9026C20.9606 12.9174 21.1891 13.9443 21.2653 14.9561C21.4542 16.4554 21.0185 17.9364 20.6162 19.3657C20.2871 19.0183 19.961 18.6709 19.638 18.3235C18.9645 19.7984 19.379 21.4562 19.9519 22.8915C20.2475 24.0008 22.0912 23.1353 22.1582 24.3969C22.7311 27.4138 23.7276 30.5649 26.0589 32.698C27.4089 33.9444 29.0758 35.1024 30.9926 35.0445C33.1654 35.1756 35.0121 33.7768 36.4749 32.3323C38.6111 30.1626 39.4674 27.1182 40.0373 24.211C40.2628 23.2481 41.7225 23.888 42.1156 23.0622C42.7281 21.8402 42.8775 20.4475 42.8714 19.0975C42.4417 18.9756 41.9175 18.9969 41.6189 18.6069C41.3629 16.7571 41.0368 14.9165 40.6529 13.088C40.3359 11.5156 40.6437 9.72065 39.76 8.31275C38.6477 7.52043 37.2002 7.40767 35.8776 7.35892C34.4179 7.29187 33.0344 7.87698 31.5838 7.88916C30.246 7.91659 29.091 7.10903 27.7928 6.92619C26.7293 6.77382 25.5987 6.69458 24.5626 7.03589ZM30.9774 36.7206C28.4023 36.7572 26.1838 35.1817 24.4316 33.4416C24.4133 34.0724 24.395 34.7063 24.3706 35.3371C26.7354 37.2905 29.1367 39.192 31.5076 41.1363C33.848 39.2103 36.2158 37.3087 38.5745 35.4011C38.5349 34.4777 38.4923 33.5544 38.4557 32.634C36.5602 34.7916 34.0126 36.8364 30.9774 36.7206Z" fill="#3DB2E4" fill-opacity="0.5"/>
</svg>
