<svg width="22" height="22" viewBox="0 0 22 22" fill="none" xmlns="http://www.w3.org/2000/svg">
<path fill-rule="evenodd" clip-rule="evenodd" d="M15.8993 1.21048C15.107 1.14574 14.1212 1.14575 12.8638 1.14575H9.13558C7.87817 1.14575 6.89235 1.14574 6.10003 1.21048C5.29324 1.2764 4.62672 1.41285 4.02343 1.72024C3.03166 2.22557 2.22533 3.03191 1.71999 4.02368C1.4126 4.62696 1.27615 5.29348 1.21024 6.10028C1.1455 6.8926 1.1455 7.87841 1.14551 9.13582V13.0426C1.14551 15.3317 3.00122 17.1874 5.29036 17.1874H5.84197C6.06976 17.1874 6.22552 17.4175 6.14092 17.629C5.51148 19.2026 7.32375 20.6252 8.70288 19.6401L11.0961 17.9307L11.1411 17.8987C11.7909 17.4407 12.5653 17.1926 13.3602 17.1875L13.4155 17.1874L14.0532 17.1874C15.4727 17.1876 16.3387 17.1878 17.0661 16.9745C18.7887 16.4694 20.1358 15.1223 20.6409 13.3996C20.8542 12.6723 20.8541 11.8064 20.8539 10.3868L20.8538 9.1358C20.8538 7.87843 20.8538 6.89258 20.7891 6.10028C20.7232 5.29348 20.5867 4.62696 20.2794 4.02368C19.774 3.03191 18.9677 2.22557 17.9759 1.72024C17.3726 1.41285 16.7061 1.2764 15.8993 1.21048ZM4.64767 2.94537C5.02481 2.75321 5.49024 2.63988 6.212 2.58091C6.94179 2.52129 7.87154 2.52075 9.16634 2.52075H12.833C14.1278 2.52075 15.0576 2.52129 15.7873 2.58091C16.5091 2.63988 16.9745 2.75321 17.3517 2.94537C18.0847 3.31888 18.6807 3.91487 19.0542 4.64791C19.2464 5.02506 19.3597 5.49048 19.4187 6.21225C19.4783 6.94204 19.4788 7.87179 19.4788 9.16659V10.2521C19.4788 11.8489 19.4718 12.4999 19.3214 13.0128C18.9481 14.286 17.9524 15.2817 16.6792 15.655C16.1663 15.8054 15.5153 15.8124 13.9185 15.8124H13.4155L13.3514 15.8125C12.2759 15.8194 11.2282 16.1552 10.3491 16.7747L10.2969 16.8118L7.90368 18.5212C7.64201 18.7081 7.29815 18.4382 7.41758 18.1396C7.86345 17.025 7.04253 15.8124 5.84197 15.8124H5.29036C3.76061 15.8124 2.52051 14.5723 2.52051 13.0426V9.16659C2.52051 7.87179 2.52104 6.94204 2.58067 6.21225C2.63964 5.49048 2.75296 5.02506 2.94513 4.64791C3.31864 3.91487 3.91462 3.31888 4.64767 2.94537Z" fill="#1D1B20"/>
<path d="M8.24935 9.16667C8.24935 9.67293 7.83894 10.0833 7.33268 10.0833C6.82642 10.0833 6.41602 9.67293 6.41602 9.16667C6.41602 8.66041 6.82642 8.25 7.33268 8.25C7.83894 8.25 8.24935 8.66041 8.24935 9.16667Z" fill="#001D34"/>
<path d="M11.916 9.16667C11.916 9.67293 11.5056 10.0833 10.9993 10.0833C10.4931 10.0833 10.0827 9.67293 10.0827 9.16667C10.0827 8.66041 10.4931 8.25 10.9993 8.25C11.5056 8.25 11.916 8.66041 11.916 9.16667Z" fill="#001D34"/>
<path d="M15.5827 9.16667C15.5827 9.67293 15.1723 10.0833 14.666 10.0833C14.1598 10.0833 13.7493 9.67293 13.7493 9.16667C13.7493 8.66041 14.1598 8.25 14.666 8.25C15.1723 8.25 15.5827 8.66041 15.5827 9.16667Z" fill="#001D34"/>
</svg>
