<svg width="22" height="22" viewBox="0 0 22 22" fill="none" xmlns="http://www.w3.org/2000/svg">
<path fill-rule="evenodd" clip-rule="evenodd" d="M19.6668 4.3358C20.1663 5.31622 20.1663 6.59968 20.1663 9.16658V10.2521C20.1663 11.8005 20.1663 12.5747 19.9812 13.2062C19.542 14.7041 18.3706 15.8755 16.8726 16.3147C16.2411 16.4999 15.4669 16.4999 13.9185 16.4999H13.4155L13.3558 16.5C12.4206 16.506 11.5096 16.7979 10.7451 17.3367L10.6965 17.3713L8.30328 19.0807C7.48288 19.6667 6.40482 18.8204 6.77925 17.8843C7.04449 17.2212 6.55614 16.4999 5.84197 16.4999H5.29036C3.38092 16.4999 1.83301 14.952 1.83301 13.0426V9.16658C1.83301 6.59968 1.83301 5.31622 2.33256 4.3358C2.77198 3.47339 3.47314 2.77222 4.33555 2.33281C5.31598 1.83325 6.59943 1.83325 9.16634 1.83325H12.833C15.3999 1.83325 16.6834 1.83325 17.6638 2.33281C18.5262 2.77222 19.2274 3.47339 19.6668 4.3358ZM8.24967 9.16658C8.24967 9.67285 7.83927 10.0833 7.33301 10.0833C6.82675 10.0833 6.41634 9.67285 6.41634 9.16658C6.41634 8.66032 6.82675 8.24992 7.33301 8.24992C7.83927 8.24992 8.24967 8.66032 8.24967 9.16658ZM11.9163 9.16658C11.9163 9.67285 11.5059 10.0833 10.9997 10.0833C10.4934 10.0833 10.083 9.67285 10.083 9.16658C10.083 8.66032 10.4934 8.24992 10.9997 8.24992C11.5059 8.24992 11.9163 8.66032 11.9163 9.16658ZM14.6663 10.0833C15.1726 10.0833 15.583 9.67285 15.583 9.16658C15.583 8.66032 15.1726 8.24992 14.6663 8.24992C14.1601 8.24992 13.7497 8.66032 13.7497 9.16658C13.7497 9.67285 14.1601 10.0833 14.6663 10.0833Z" fill="#1D1B20"/>
</svg>
