<svg width="23" height="27" viewBox="0 0 23 27" fill="none" xmlns="http://www.w3.org/2000/svg">
<path d="M11.6025 0H11.6983C11.9392 0.0226517 12.1822 0.0545699 12.4108 0.137969C13.078 0.368089 13.6226 0.92357 13.8383 1.5954C14.0026 2.0752 13.9531 2.59053 13.9609 3.08835C14.6934 3.08938 15.426 3.08938 16.1586 3.08783C16.3352 3.08783 16.521 3.10276 16.6734 3.20109C16.9226 3.34421 17.0611 3.6325 17.0497 3.91616C17.0487 7.00348 17.0528 10.0913 17.0472 13.1786C17.0575 13.5961 16.6827 13.9642 16.2662 13.9493C13.1938 13.9534 10.1209 13.9514 7.04851 13.9503C6.62173 13.9766 6.22893 13.6039 6.24025 13.175C6.23562 10.1742 6.24077 7.17285 6.23768 4.17151C6.23871 3.93573 6.21709 3.67987 6.34785 3.47034C6.48788 3.22683 6.76587 3.08063 7.0449 3.08989C7.80579 3.0868 8.56668 3.09041 9.32706 3.08886C9.3322 2.67547 9.3044 2.25796 9.38163 1.84971C9.47378 1.40234 9.70184 0.984832 10.0293 0.666165C10.4447 0.252772 11.0198 0.0241961 11.6025 0ZM10.8823 2.21317C10.8586 2.50404 10.8782 2.79697 10.872 3.08835C11.3868 3.08938 11.9016 3.08886 12.4164 3.08886C12.4103 2.79799 12.4298 2.5061 12.4056 2.21574C12.3686 1.85795 12.0447 1.56091 11.6864 1.54803C11.2988 1.51766 10.9245 1.82655 10.8823 2.21317ZM7.78314 4.63381C7.78314 7.22485 7.78365 9.81538 7.78314 12.4064C10.3572 12.4074 12.9312 12.4069 15.5048 12.4069C15.5053 9.81589 15.5053 7.22485 15.5053 4.63329C14.9905 4.63329 14.4757 4.63278 13.9609 4.63381C13.9547 4.92468 13.9748 5.21709 13.9501 5.50744C13.9125 5.86729 13.5856 6.16434 13.2252 6.17412C12.8412 6.20141 12.4715 5.89561 12.4272 5.5131C12.4025 5.22069 12.4226 4.92674 12.4164 4.63329C11.9016 4.63329 11.3868 4.63278 10.872 4.63381C10.8684 4.90666 10.8802 5.18002 10.8669 5.45339C10.854 5.81427 10.5502 6.13345 10.1919 6.16949C9.79039 6.22921 9.38317 5.91517 9.33838 5.51207C9.31367 5.22018 9.33426 4.92622 9.32757 4.63329C8.81276 4.63329 8.29795 4.63278 7.78314 4.63381Z" fill="black"/>
<path d="M18.3543 13.6806C19.4534 12.8646 20.8161 12.4157 22.1844 12.4095C22.4146 12.4013 22.6488 12.4898 22.8032 12.6638C23.0313 12.9068 23.0596 13.2914 22.8959 13.5771C21.7335 15.7964 20.5679 18.0153 19.4045 20.2341C18.9684 21.0892 18.3048 21.8269 17.5002 22.35C16.6168 22.9204 15.5645 23.221 14.5133 23.2174C12.3737 23.2205 10.2342 23.2138 8.09511 23.221C7.14271 24.1781 6.18105 25.1269 5.22659 26.0813C5.08038 26.2378 4.88218 26.3413 4.66751 26.3583H4.53417C4.31332 26.3197 4.12438 26.192 3.97612 26.0283C2.73285 24.7855 1.48392 23.5479 0.240653 22.3052C-0.0749263 22.0174 -0.0821335 21.4774 0.230871 21.1855C1.75522 19.6585 3.27958 18.1321 4.80754 16.6098C5.51849 15.9035 6.50847 15.4953 7.51081 15.4973C10.5662 15.4937 13.6211 15.4968 16.6765 15.4958C17.1177 14.7946 17.6845 14.1702 18.3543 13.6806ZM17.8853 16.4961C17.564 17.0752 17.268 17.6678 16.9565 18.2526C16.7259 18.6768 16.537 19.1401 16.1782 19.4773C15.7406 19.9077 15.1254 20.1368 14.5143 20.1286C12.7964 20.1291 11.0784 20.1296 9.36052 20.1286C8.95845 20.1497 8.57852 19.8161 8.55999 19.412C8.51726 18.9903 8.88329 18.5872 9.30698 18.5877C11.0599 18.578 12.8134 18.5908 14.5663 18.5821C14.8571 18.5847 15.13 18.4101 15.2628 18.1538C15.4615 17.7846 15.652 17.4114 15.8476 17.0402C13.1191 17.0397 10.3912 17.0412 7.66319 17.0397C7.25649 17.0418 6.84052 17.1015 6.47809 17.2956C6.14553 17.4557 5.87783 17.7177 5.62197 17.9777C4.36789 19.2318 3.11381 20.4853 1.86025 21.7394C2.78227 22.6589 3.70533 23.5778 4.62838 24.4967C5.49584 23.6349 6.3602 22.7701 7.22869 21.9093C7.3821 21.7533 7.59884 21.6679 7.81712 21.674C9.75692 21.6725 11.6962 21.674 13.6355 21.6735C14.0669 21.6689 14.4988 21.6879 14.9292 21.6498C16.2008 21.5484 17.3787 20.7556 17.9733 19.6307C18.9391 17.8052 19.893 15.9735 20.8537 14.1454C19.6078 14.5022 18.5144 15.3614 17.8853 16.4961Z" fill="black"/>
</svg>
