<svg width="25" height="24" viewBox="0 0 25 24" fill="none" xmlns="http://www.w3.org/2000/svg">
<path fill-rule="evenodd" clip-rule="evenodd" d="M8.3356 4.27565C9.64637 0.24153 15.3536 0.24153 16.6643 4.27565C17.0497 5.46173 18.155 6.26477 19.4021 6.26477C23.6439 6.26477 25.4075 11.6926 21.9759 14.1859C20.9669 14.9189 20.5447 16.2182 20.9301 17.4043C22.2409 21.4385 17.6237 24.7931 14.192 22.2998C13.1831 21.5668 11.8169 21.5668 10.8079 22.2998C7.3763 24.7931 2.75907 21.4385 4.06984 17.4043C4.45522 16.2182 4.03304 14.9189 3.0241 14.1859C-0.407534 11.6926 1.35609 6.26477 5.59782 6.26477C6.84494 6.26477 7.95022 5.46173 8.3356 4.27565ZM15.2103 7.64547C15.0774 7.25315 14.6516 7.04285 14.2593 7.17574C13.867 7.30863 13.6567 7.7344 13.7896 8.12672C14.2207 9.39937 15.4434 10.2337 16.7924 10.2337C17.2066 10.2337 17.5424 9.89794 17.5424 9.48372C17.5424 9.06951 17.2066 8.73372 16.7924 8.73372C16.0529 8.73372 15.4246 8.2781 15.2103 7.64547Z" fill="#F79F00"/>
</svg>
