<svg width="25" height="24" viewBox="0 0 25 24" fill="none" xmlns="http://www.w3.org/2000/svg">
<path d="M15.2103 7.64547C15.0774 7.25315 14.6517 7.04285 14.2593 7.17574C13.867 7.30863 13.6567 7.7344 13.7896 8.12672C14.2207 9.39937 15.4434 10.2337 16.7924 10.2337C17.2067 10.2337 17.5424 9.89794 17.5424 9.48372C17.5424 9.06951 17.2067 8.73372 16.7924 8.73372C16.053 8.73372 15.4246 8.2781 15.2103 7.64547Z" fill="#1D1B20"/>
<path fill-rule="evenodd" clip-rule="evenodd" d="M16.6643 4.27565C15.3536 0.24153 9.64637 0.24153 8.3356 4.27565C7.95022 5.46173 6.84494 6.26477 5.59782 6.26477C1.35609 6.26477 -0.407535 11.6926 3.0241 14.1859C4.03304 14.9189 4.45522 16.2182 4.06984 17.4043C2.75907 21.4385 7.3763 24.7931 10.8079 22.2998C11.8169 21.5668 13.1831 21.5668 14.192 22.2998C17.6236 24.7931 22.2409 21.4385 20.9301 17.4043C20.5447 16.2182 20.9669 14.9189 21.9759 14.1859C25.4075 11.6926 23.6439 6.26477 19.4021 6.26477C18.155 6.26477 17.0497 5.46173 16.6643 4.27565ZM9.76219 4.73918C10.6239 2.08702 14.376 2.08702 15.2378 4.73918C15.8239 6.54329 17.5052 7.76477 19.4021 7.76477C22.1908 7.76477 23.3502 11.3332 21.0942 12.9723C19.5595 14.0873 18.9173 16.0637 19.5035 17.8679C20.3653 20.52 17.3298 22.7254 15.0737 21.0863C13.539 19.9713 11.4609 19.9713 9.92625 21.0863C7.67019 22.7254 4.63468 20.52 5.49642 17.8679C6.08261 16.0637 5.44044 14.0873 3.90577 12.9723C1.64971 11.3332 2.80918 7.76477 5.59782 7.76477C7.49478 7.76477 9.17599 6.54329 9.76219 4.73918Z" fill="#1D1B20"/>
</svg>
