<svg width="67" height="83" viewBox="0 0 67 83" fill="none" xmlns="http://www.w3.org/2000/svg">
<path d="M27.6765 1.10878C29.2578 0.464802 30.9303 1.17426 32.3112 1.96377C34.3698 2.08383 36.1807 0.82499 38.2393 0.948691C39.8389 0.959606 41.4093 1.549 42.6517 2.55317C45.0274 4.4196 46.9475 6.79175 48.6819 9.24394C50.4818 11.9363 52.3328 14.8869 52.3109 18.2377C52.3437 22.7565 49.7713 26.7404 49.2685 31.1718C49.0353 33.0018 48.1281 34.6718 46.8528 35.9852C45.4209 37.4696 43.9634 39.1578 41.8684 39.6635C41.9777 38.834 42.1526 38.019 42.3493 37.2077C41.9157 37.6479 41.4457 38.0554 41.0777 38.5538C41.1178 39.9291 41.3728 41.2898 41.6898 42.6287C41.8356 43.5928 42.9432 43.7966 43.7193 44.0585C48.2264 45.2228 53.0542 45.1864 57.3354 47.1729C60.4507 48.7737 63.0778 51.4115 64.4733 54.6386C65.9999 58.0804 66.4445 61.8751 66.7141 65.5934C66.9728 70.4287 66.9946 75.2749 66.8635 80.1174C66.7979 80.7614 66.9363 81.5509 66.3643 82.0202C65.9781 82.1112 65.5882 82.1512 65.1947 82.1403C43.927 82.1257 22.6593 82.1512 1.39158 82.1294C0.783096 82.2203 0.185542 81.7947 0.20376 81.158C-0.025787 76.8175 0.0580136 72.4661 0.167322 68.122C0.338571 63.9126 0.644636 59.623 2.11665 55.6355C3.75627 51.084 7.68772 47.3803 12.3953 46.1687C16.0534 45.1136 19.9011 44.9863 23.5629 43.9749C24.1823 43.7347 25.0604 43.5746 25.2499 42.8324C25.5997 41.5954 25.8329 40.3329 26.1316 39.085C25.0167 38.2191 23.9673 37.2732 22.9726 36.2763C23.275 37.386 23.552 38.5029 23.7159 39.6417C22.0872 38.9395 21.2128 37.3023 19.8318 36.2726C17.9153 34.7919 16.0425 33.1474 14.8875 30.9826C12.8398 27.2243 12.4536 22.8074 12.6612 18.6052C13.0438 13.2206 16.3413 8.46899 20.5351 5.2564C22.7139 3.56824 25.1078 2.12749 27.6765 1.10878ZM26.0187 12.9768C24.554 14.3011 24.3754 16.3713 24.4665 18.2196C24.5102 21.414 21.4533 23.5169 21.1691 26.6094C21.4132 28.2357 21.916 29.8111 22.4115 31.3755C23.3443 34.4935 26.026 36.6183 28.6093 38.3828C30.708 39.9291 33.5609 39.9546 35.9876 39.3251C38.2903 38.2773 40.3235 36.6365 42.0177 34.77C43.661 33.0455 44.2003 30.6588 44.8087 28.4358C44.9763 27.73 45.2496 26.9841 44.9982 26.2601C44.1966 23.033 41.3838 20.8973 40.1923 17.8521C39.245 16.0184 39.4271 13.7845 38.1956 12.0818C37.2883 10.7393 35.9366 9.80787 34.552 9.01473C31.8339 10.6083 28.4818 10.9321 26.0187 12.9768ZM27.8769 40.322C27.5964 41.4899 27.4105 42.6833 27.028 43.8257C26.5069 45.0118 25.1989 45.5429 24.0402 45.9031C21.3221 46.6635 18.4983 46.9182 15.7291 47.4203C19.9484 52.6558 26.2373 56.6542 33.1346 56.6324C40.6405 56.6397 47.4504 52.583 52.9085 47.7477C49.1701 46.8709 45.2095 46.8527 41.6279 45.3938C39.398 44.5024 39.5875 41.7773 39.1575 39.8272C35.9621 42.2176 31.2873 42.3158 27.8769 40.322Z" fill="#4F378B" fill-opacity="0.9"/>
</svg>
